<svg width="640" height="420" viewBox="0 0 640 420" xmlns="http://www.w3.org/2000/svg" role="img" aria-label="LFMUN logo placeholder">
  <defs>
    <linearGradient id="gold" x1="0" x2="1" y1="0" y2="1">
      <stop offset="0%" stop-color="#f6d47a"/>
      <stop offset="50%" stop-color="#d4af37"/>
      <stop offset="100%" stop-color="#b58b2a"/>
    </linearGradient>
  </defs>
  <rect width="640" height="420" fill="#0b0b0b"/>
  <circle cx="320" cy="170" r="110" fill="none" stroke="url(#gold)" stroke-width="6"/>
  <path d="M320 70 C370 70 420 120 420 170 C420 220 370 270 320 270 C270 270 220 220 220 170 C220 120 270 70 320 70" fill="none" stroke="url(#gold)" stroke-width="4" opacity="0.65"/>
  <path d="M420 60 C470 55 520 80 555 120 C520 110 490 115 470 140 C455 110 440 85 420 60" fill="none" stroke="url(#gold)" stroke-width="5"/>
  <path d="M220 275 C250 305 290 325 320 330 C350 325 390 305 420 275" fill="none" stroke="url(#gold)" stroke-width="5"/>
  <text x="320" y="360" text-anchor="middle" font-family="Segoe UI, Arial, sans-serif" font-size="64" fill="url(#gold)" letter-spacing="6">LFMUN</text>
  <text x="320" y="395" text-anchor="middle" font-family="Segoe UI, Arial, sans-serif" font-size="20" fill="#d4af37" letter-spacing="2">10ª EDICIÓN</text>
</svg>
